<mxfile host="app.diagrams.net" modified="2020-12-16T05:55:15.978Z" agent="5.0 (Windows NT 10.0; Win64; x64) AppleWebKit/537.36 (KHTML, like Gecko) Chrome/87.0.4280.88 Safari/537.36" etag="S32IciNRW5CYNhm__K9z" version="14.0.1" type="github" pages="2">
  <diagram id="kgpKYQtTHZ0yAKxKKP6v" name="Page-1">
    <mxGraphModel dx="1185" dy="635" grid="1" gridSize="1" guides="1" tooltips="1" connect="1" arrows="1" fold="1" page="1" pageScale="1" pageWidth="850" pageHeight="1100" math="0" shadow="0">
      <root>
        <mxCell id="0" />
        <mxCell id="1" parent="0" />
        <mxCell id="8e3iIAsaUR_CPn4ZfIlF-45" value="glink" style="rounded=0;whiteSpace=wrap;html=1;shadow=0;fontFamily=Helvetica;fontSize=12;align=center;fillColor=#fff2cc;strokeColor=#d6b656;" vertex="1" parent="1">
          <mxGeometry x="97" y="144" width="120" height="60" as="geometry" />
        </mxCell>
        <mxCell id="8e3iIAsaUR_CPn4ZfIlF-46" value="gdelivery" style="rounded=0;whiteSpace=wrap;html=1;shadow=0;fontFamily=Helvetica;fontSize=12;align=center;fillColor=#f8cecc;strokeColor=#b85450;" vertex="1" parent="1">
          <mxGeometry x="293" y="144" width="120" height="60" as="geometry" />
        </mxCell>
        <mxCell id="8e3iIAsaUR_CPn4ZfIlF-47" value="gamedbd" style="rounded=0;whiteSpace=wrap;html=1;shadow=0;fontFamily=Helvetica;fontSize=12;align=center;fillColor=#e1d5e7;strokeColor=#9673a6;" vertex="1" parent="1">
          <mxGeometry x="503" y="144" width="120" height="60" as="geometry" />
        </mxCell>
        <mxCell id="8e3iIAsaUR_CPn4ZfIlF-48" value="gameserver" style="rounded=0;whiteSpace=wrap;html=1;shadow=0;fontFamily=Helvetica;fontSize=12;align=center;fillColor=#dae8fc;strokeColor=#6c8ebf;" vertex="1" parent="1">
          <mxGeometry x="292" y="267" width="120" height="60" as="geometry" />
        </mxCell>
        <mxCell id="8e3iIAsaUR_CPn4ZfIlF-49" value="" style="shape=flexArrow;endArrow=classic;startArrow=block;html=1;fontFamily=Helvetica;fontSize=12;exitX=1;exitY=0.5;exitDx=0;exitDy=0;entryX=0;entryY=0.5;entryDx=0;entryDy=0;endWidth=10;endSize=5.166666666666667;startWidth=13.333333333333334;startSize=4.891666666666667;startFill=0;fillColor=#eeeeee;strokeColor=#36393d;" edge="1" parent="1" source="8e3iIAsaUR_CPn4ZfIlF-45" target="8e3iIAsaUR_CPn4ZfIlF-46">
          <mxGeometry width="50" height="50" relative="1" as="geometry">
            <mxPoint x="373" y="293" as="sourcePoint" />
            <mxPoint x="423" y="243" as="targetPoint" />
          </mxGeometry>
        </mxCell>
        <mxCell id="8e3iIAsaUR_CPn4ZfIlF-57" value="" style="shape=flexArrow;endArrow=classic;startArrow=classic;html=1;fontFamily=Helvetica;fontSize=12;entryX=0;entryY=0.5;entryDx=0;entryDy=0;exitX=1;exitY=0.5;exitDx=0;exitDy=0;startWidth=11.666666666666668;startSize=4.833333333333333;endWidth=10;endSize=5.7250000000000005;fillColor=#eeeeee;strokeColor=#36393d;" edge="1" parent="1" source="8e3iIAsaUR_CPn4ZfIlF-46" target="8e3iIAsaUR_CPn4ZfIlF-47">
          <mxGeometry width="50" height="50" relative="1" as="geometry">
            <mxPoint x="417" y="255" as="sourcePoint" />
            <mxPoint x="467" y="205" as="targetPoint" />
          </mxGeometry>
        </mxCell>
        <mxCell id="8e3iIAsaUR_CPn4ZfIlF-58" value="" style="shape=flexArrow;endArrow=classic;startArrow=classic;html=1;fontFamily=Helvetica;fontSize=12;entryX=0.5;entryY=1;entryDx=0;entryDy=0;exitX=0.5;exitY=0;exitDx=0;exitDy=0;endWidth=15;endSize=6.783333333333334;startWidth=13.333333333333334;startSize=6.441666666666667;fillColor=#eeeeee;strokeColor=#36393d;" edge="1" parent="1" source="8e3iIAsaUR_CPn4ZfIlF-48" target="8e3iIAsaUR_CPn4ZfIlF-46">
          <mxGeometry width="50" height="50" relative="1" as="geometry">
            <mxPoint x="497" y="300" as="sourcePoint" />
            <mxPoint x="547" y="250" as="targetPoint" />
          </mxGeometry>
        </mxCell>
      </root>
    </mxGraphModel>
  </diagram>
  <diagram id="0OgzpcdSNnnKaS0ms3lA" name="Page-2">
    <mxGraphModel dx="1422" dy="762" grid="1" gridSize="10" guides="1" tooltips="1" connect="1" arrows="1" fold="1" page="1" pageScale="1" pageWidth="827" pageHeight="1169" math="0" shadow="0">
      <root>
        <mxCell id="CHY1JKjZ-cwcwIP-8aB2-0" />
        <mxCell id="CHY1JKjZ-cwcwIP-8aB2-1" parent="CHY1JKjZ-cwcwIP-8aB2-0" />
        <mxCell id="CHY1JKjZ-cwcwIP-8aB2-2" value="Corps&#xa;PSyncObject&lt;PB::corps_struct&gt;" style="swimlane;fontStyle=0;childLayout=stackLayout;horizontal=1;startSize=26;fillColor=none;horizontalStack=0;resizeParent=1;resizeParentMax=0;resizeLast=0;collapsible=1;marginBottom=0;shadow=0;fontFamily=Helvetica;fontSize=12;align=center;" vertex="1" parent="CHY1JKjZ-cwcwIP-8aB2-1">
          <mxGeometry x="160" y="460" width="180" height="78" as="geometry" />
        </mxCell>
        <mxCell id="CHY1JKjZ-cwcwIP-8aB2-3" value="+ field: type" style="text;strokeColor=none;fillColor=none;align=left;verticalAlign=top;spacingLeft=4;spacingRight=4;overflow=hidden;rotatable=0;points=[[0,0.5],[1,0.5]];portConstraint=eastwest;" vertex="1" parent="CHY1JKjZ-cwcwIP-8aB2-2">
          <mxGeometry y="26" width="180" height="26" as="geometry" />
        </mxCell>
        <mxCell id="CHY1JKjZ-cwcwIP-8aB2-5" value="+ field: type" style="text;strokeColor=none;fillColor=none;align=left;verticalAlign=top;spacingLeft=4;spacingRight=4;overflow=hidden;rotatable=0;points=[[0,0.5],[1,0.5]];portConstraint=eastwest;" vertex="1" parent="CHY1JKjZ-cwcwIP-8aB2-2">
          <mxGeometry y="52" width="180" height="26" as="geometry" />
        </mxCell>
        <mxCell id="CHY1JKjZ-cwcwIP-8aB2-7" value="Classname" style="swimlane;fontStyle=1;align=center;verticalAlign=top;childLayout=stackLayout;horizontal=1;startSize=26;horizontalStack=0;resizeParent=1;resizeParentMax=0;resizeLast=0;collapsible=1;marginBottom=0;shadow=0;fontFamily=Helvetica;fontSize=12;" vertex="1" parent="CHY1JKjZ-cwcwIP-8aB2-1">
          <mxGeometry x="440" y="570" width="160" height="86" as="geometry" />
        </mxCell>
        <mxCell id="CHY1JKjZ-cwcwIP-8aB2-8" value="+ field: type" style="text;strokeColor=none;fillColor=none;align=left;verticalAlign=top;spacingLeft=4;spacingRight=4;overflow=hidden;rotatable=0;points=[[0,0.5],[1,0.5]];portConstraint=eastwest;" vertex="1" parent="CHY1JKjZ-cwcwIP-8aB2-7">
          <mxGeometry y="26" width="160" height="26" as="geometry" />
        </mxCell>
        <mxCell id="CHY1JKjZ-cwcwIP-8aB2-9" value="" style="line;strokeWidth=1;fillColor=none;align=left;verticalAlign=middle;spacingTop=-1;spacingLeft=3;spacingRight=3;rotatable=0;labelPosition=right;points=[];portConstraint=eastwest;" vertex="1" parent="CHY1JKjZ-cwcwIP-8aB2-7">
          <mxGeometry y="52" width="160" height="8" as="geometry" />
        </mxCell>
        <mxCell id="CHY1JKjZ-cwcwIP-8aB2-10" value="+ method(type): type" style="text;strokeColor=none;fillColor=none;align=left;verticalAlign=top;spacingLeft=4;spacingRight=4;overflow=hidden;rotatable=0;points=[[0,0.5],[1,0.5]];portConstraint=eastwest;" vertex="1" parent="CHY1JKjZ-cwcwIP-8aB2-7">
          <mxGeometry y="60" width="160" height="26" as="geometry" />
        </mxCell>
        <mxCell id="CHY1JKjZ-cwcwIP-8aB2-12" value="PSyncObject&lt;Data&gt;&#xa;std::enable_shared_from_this&lt;&gt;" style="swimlane;fontStyle=0;childLayout=stackLayout;horizontal=1;startSize=26;fillColor=none;horizontalStack=0;resizeParent=1;resizeParentMax=0;resizeLast=0;collapsible=1;marginBottom=0;shadow=0;fontFamily=Helvetica;fontSize=12;align=center;" vertex="1" parent="CHY1JKjZ-cwcwIP-8aB2-1">
          <mxGeometry x="145" y="340" width="210" height="78" as="geometry" />
        </mxCell>
        <mxCell id="CHY1JKjZ-cwcwIP-8aB2-13" value="+ field: type" style="text;strokeColor=none;fillColor=none;align=left;verticalAlign=top;spacingLeft=4;spacingRight=4;overflow=hidden;rotatable=0;points=[[0,0.5],[1,0.5]];portConstraint=eastwest;" vertex="1" parent="CHY1JKjZ-cwcwIP-8aB2-12">
          <mxGeometry y="26" width="210" height="26" as="geometry" />
        </mxCell>
        <mxCell id="CHY1JKjZ-cwcwIP-8aB2-14" value="+ field: type" style="text;strokeColor=none;fillColor=none;align=left;verticalAlign=top;spacingLeft=4;spacingRight=4;overflow=hidden;rotatable=0;points=[[0,0.5],[1,0.5]];portConstraint=eastwest;" vertex="1" parent="CHY1JKjZ-cwcwIP-8aB2-12">
          <mxGeometry y="52" width="210" height="26" as="geometry" />
        </mxCell>
        <mxCell id="CHY1JKjZ-cwcwIP-8aB2-22" value="Corps" style="swimlane;fontStyle=0;childLayout=stackLayout;horizontal=1;startSize=26;fillColor=none;horizontalStack=0;resizeParent=1;resizeParentMax=0;resizeLast=0;collapsible=1;marginBottom=0;shadow=0;fontFamily=Helvetica;fontSize=12;align=center;" vertex="1" parent="CHY1JKjZ-cwcwIP-8aB2-1">
          <mxGeometry x="450" y="730" width="140" height="78" as="geometry" />
        </mxCell>
        <mxCell id="CHY1JKjZ-cwcwIP-8aB2-23" value="+ field: type" style="text;strokeColor=none;fillColor=none;align=left;verticalAlign=top;spacingLeft=4;spacingRight=4;overflow=hidden;rotatable=0;points=[[0,0.5],[1,0.5]];portConstraint=eastwest;" vertex="1" parent="CHY1JKjZ-cwcwIP-8aB2-22">
          <mxGeometry y="26" width="140" height="26" as="geometry" />
        </mxCell>
        <mxCell id="CHY1JKjZ-cwcwIP-8aB2-24" value="+ field: type" style="text;strokeColor=none;fillColor=none;align=left;verticalAlign=top;spacingLeft=4;spacingRight=4;overflow=hidden;rotatable=0;points=[[0,0.5],[1,0.5]];portConstraint=eastwest;" vertex="1" parent="CHY1JKjZ-cwcwIP-8aB2-22">
          <mxGeometry y="52" width="140" height="26" as="geometry" />
        </mxCell>
        <mxCell id="CHY1JKjZ-cwcwIP-8aB2-25" value="Corps" style="swimlane;fontStyle=0;childLayout=stackLayout;horizontal=1;startSize=26;fillColor=none;horizontalStack=0;resizeParent=1;resizeParentMax=0;resizeLast=0;collapsible=1;marginBottom=0;shadow=0;fontFamily=Helvetica;fontSize=12;align=center;" vertex="1" parent="CHY1JKjZ-cwcwIP-8aB2-1">
          <mxGeometry x="640" y="710" width="140" height="78" as="geometry" />
        </mxCell>
        <mxCell id="CHY1JKjZ-cwcwIP-8aB2-26" value="+ field: type" style="text;strokeColor=none;fillColor=none;align=left;verticalAlign=top;spacingLeft=4;spacingRight=4;overflow=hidden;rotatable=0;points=[[0,0.5],[1,0.5]];portConstraint=eastwest;" vertex="1" parent="CHY1JKjZ-cwcwIP-8aB2-25">
          <mxGeometry y="26" width="140" height="26" as="geometry" />
        </mxCell>
        <mxCell id="CHY1JKjZ-cwcwIP-8aB2-27" value="+ field: type" style="text;strokeColor=none;fillColor=none;align=left;verticalAlign=top;spacingLeft=4;spacingRight=4;overflow=hidden;rotatable=0;points=[[0,0.5],[1,0.5]];portConstraint=eastwest;" vertex="1" parent="CHY1JKjZ-cwcwIP-8aB2-25">
          <mxGeometry y="52" width="140" height="26" as="geometry" />
        </mxCell>
        <mxCell id="CHY1JKjZ-cwcwIP-8aB2-28" value="Corps" style="swimlane;fontStyle=0;childLayout=stackLayout;horizontal=1;startSize=26;fillColor=none;horizontalStack=0;resizeParent=1;resizeParentMax=0;resizeLast=0;collapsible=1;marginBottom=0;shadow=0;fontFamily=Helvetica;fontSize=12;align=center;" vertex="1" parent="CHY1JKjZ-cwcwIP-8aB2-1">
          <mxGeometry x="660" y="570" width="140" height="78" as="geometry" />
        </mxCell>
        <mxCell id="CHY1JKjZ-cwcwIP-8aB2-29" value="+ field: type" style="text;strokeColor=none;fillColor=none;align=left;verticalAlign=top;spacingLeft=4;spacingRight=4;overflow=hidden;rotatable=0;points=[[0,0.5],[1,0.5]];portConstraint=eastwest;" vertex="1" parent="CHY1JKjZ-cwcwIP-8aB2-28">
          <mxGeometry y="26" width="140" height="26" as="geometry" />
        </mxCell>
        <mxCell id="CHY1JKjZ-cwcwIP-8aB2-30" value="+ field: type" style="text;strokeColor=none;fillColor=none;align=left;verticalAlign=top;spacingLeft=4;spacingRight=4;overflow=hidden;rotatable=0;points=[[0,0.5],[1,0.5]];portConstraint=eastwest;" vertex="1" parent="CHY1JKjZ-cwcwIP-8aB2-28">
          <mxGeometry y="52" width="140" height="26" as="geometry" />
        </mxCell>
        <mxCell id="CHY1JKjZ-cwcwIP-8aB2-31" value="Corps" style="swimlane;fontStyle=0;childLayout=stackLayout;horizontal=1;startSize=26;fillColor=none;horizontalStack=0;resizeParent=1;resizeParentMax=0;resizeLast=0;collapsible=1;marginBottom=0;shadow=0;fontFamily=Helvetica;fontSize=12;align=center;" vertex="1" parent="CHY1JKjZ-cwcwIP-8aB2-1">
          <mxGeometry x="650" y="422" width="140" height="78" as="geometry" />
        </mxCell>
        <mxCell id="CHY1JKjZ-cwcwIP-8aB2-32" value="+ field: type" style="text;strokeColor=none;fillColor=none;align=left;verticalAlign=top;spacingLeft=4;spacingRight=4;overflow=hidden;rotatable=0;points=[[0,0.5],[1,0.5]];portConstraint=eastwest;" vertex="1" parent="CHY1JKjZ-cwcwIP-8aB2-31">
          <mxGeometry y="26" width="140" height="26" as="geometry" />
        </mxCell>
        <mxCell id="CHY1JKjZ-cwcwIP-8aB2-33" value="+ field: type" style="text;strokeColor=none;fillColor=none;align=left;verticalAlign=top;spacingLeft=4;spacingRight=4;overflow=hidden;rotatable=0;points=[[0,0.5],[1,0.5]];portConstraint=eastwest;" vertex="1" parent="CHY1JKjZ-cwcwIP-8aB2-31">
          <mxGeometry y="52" width="140" height="26" as="geometry" />
        </mxCell>
      </root>
    </mxGraphModel>
  </diagram>
</mxfile>
